<?xml version="1.0" encoding="UTF-8"?>
<svg id="svg16" xmlns="http://www.w3.org/2000/svg" viewBox="0 0 88 88">
    <defs>
        <style>.cls-1{fill:#fff;}</style>
    </defs>
    <path id="path10" class="cls-1"
        d="m44.66,7.96c-11.67-.05-23.17,2.83-33.44,8.38-1.06.58-1.71,1.7-1.7,2.9.35,24.66,13.5,46.2,33.13,58.31,1.05.64,2.36.64,3.41,0,19.62-12.1,32.78-33.65,33.13-58.31.01-1.21-.64-2.32-1.7-2.9-10.09-5.45-21.36-8.33-32.82-8.38Zm-12.4,14.84l14.36,14.36c1.22,1.22,1.22,3.2,0,4.41l-14.36,14.36c-1.22,1.22-3.2,1.22-4.41,0h0c-1.22-1.22-1.22-3.19,0-4.41l9.93-9.95c1.22-1.22,1.22-3.19,0-4.41l-9.93-9.95c-1.22-1.22-1.22-3.19,0-4.41h0c1.22-1.22,3.2-1.22,4.41,0Zm17.71,0l14.36,14.36c1.22,1.22,1.22,3.2,0,4.41l-14.36,14.36c-1.22,1.22-3.2,1.22-4.41,0h0c-1.22-1.22-1.22-3.19,0-4.41l9.93-9.95c1.22-1.22,1.22-3.19,0-4.41l-9.93-9.95c-1.22-1.22-1.22-3.19,0-4.41h0c1.22-1.22,3.2-1.22,4.41,0Z" />
</svg>